<?xml version="1.0" encoding="utf-8"?>
<!-- Generator: Adobe Illustrator 27.2.0, SVG Export Plug-In . SVG Version: 6.00 Build 0)  -->
<svg version="1.1" id="Capa_1" xmlns="http://www.w3.org/2000/svg" xmlns:xlink="http://www.w3.org/1999/xlink" x="0px" y="0px"
	 viewBox="0 0 105 104" style="enable-background:new 0 0 105 104;" xml:space="preserve">
<style type="text/css">
	.st0{fill:#FFFFFF;}
</style>
<g>
	<path class="st0" d="M97.5,48.3c0,2.5,0,4.9,0,7.4c0,0.2-0.1,0.4-0.1,0.6c-0.7,7.4-3.2,14.3-7.3,20.5C80.1,92.1,61,99.9,43,95.9
		C19.2,90.6,3.7,67.8,8.3,43.9C11.8,25.7,23,14,40.7,8.5c2.6-0.8,5.3-1.1,8-1.5c2.5,0,5,0,7.5,0c1.8,0.3,3.7,0.4,5.4,0.8
		c17.6,4.2,29,15,34.3,32.2C96.8,42.7,97.1,45.5,97.5,48.3z M45.7,58.4C45.7,58.4,45.7,58.4,45.7,58.4c0,5.1,0,10.1,0,15.2
		c0,1.2,0.1,1.2,1.2,1.2c2.7,0,5.4,0,8.1,0c1.4,0,1.4,0,1.4-1.4c0-5.7,0-11.3,0-17c0-1.6,0.4-3.1,1.4-4.4c1.5-1.9,3.5-2.6,5.8-2.2
		c2.3,0.4,3.5,2,4.1,4.2c0.2,0.8,0.3,1.6,0.3,2.4c0,5.8,0,11.5,0,17.3c0,0.8,0.3,1.1,1.1,1.1c2.8,0,5.7,0,8.5,0c1.1,0,1.1,0,1.1-1.1
		c0-4.8,0-9.6,0-14.5c0-2.1,0.1-4.2-0.2-6.3c-0.9-7-5.1-11.2-11.3-11.5c-4.1-0.2-7.6,1-10.1,4.4c-0.1,0.1-0.2,0.3-0.3,0.4
		c-0.1,0.1-0.2,0.2-0.3,0.2c-0.2,0-0.2-0.3-0.2-0.4c0-0.9,0-1.9,0-2.8c0-0.8-0.3-1.1-1.1-1.1c-2.8,0-5.6,0-8.4,0
		c-1.1,0-1.2,0.1-1.2,1.2C45.7,48.4,45.7,53.4,45.7,58.4z M28.7,58.5c0,5,0,10,0,15.1c0,1.2,0,1.3,1.3,1.3c2.7,0,5.5,0,8.2,0
		c0.8,0,1.1-0.2,1.1-1.1c0-10.2,0-20.4,0-30.6c0-0.8-0.3-1.1-1.1-1.1c-2.8,0-5.6,0-8.3,0c-1.2,0-1.3,0-1.3,1.3
		C28.7,48.5,28.7,53.5,28.7,58.5z M34,37.4c4.3,0,7-3.4,5.8-7.2c-0.9-2.9-3.4-4-6.1-3.9c-2.1,0.1-3.9,0.9-5,2.8
		C26.8,32.5,28.8,37.5,34,37.4z"/>
</g>
</svg>
