<?xml version="1.0" encoding="utf-8"?>
<!-- Generator: Adobe Illustrator 27.2.0, SVG Export Plug-In . SVG Version: 6.00 Build 0)  -->
<svg version="1.1" id="Capa_1" xmlns="http://www.w3.org/2000/svg" xmlns:xlink="http://www.w3.org/1999/xlink" x="0px" y="0px"
	 viewBox="0 0 105 104" style="enable-background:new 0 0 105 104;" xml:space="preserve">
<style type="text/css">
	.st0{fill:#FFFFFF;}
</style>
<g>
	<path class="st0" d="M8.4,97c3-3.6,6.1-7.1,9.1-10.7c8.2-9.5,16.3-19,24.5-28.5c0.5-0.6,0.5-1,0.1-1.7C31.2,40.3,20.2,24.3,9.3,8.4
		C9,8,8.5,7.6,8.7,7.2c0.2-0.4,0.8-0.2,1.2-0.2c8,0,15.9,0,23.9,0c0.8,0,1.2,0.3,1.6,0.9c7.1,10.4,14.3,20.8,21.4,31.2
		c0.6,0.9,0.6,0.9,1.3,0.1c8.5-9.9,17-19.8,25.5-29.7c0.4-0.4,0.8-0.8,1.1-1.3c0.6-1,1.4-1.2,2.5-1.1c1.8,0.1,3.6,0,5.4,0
		c0.2,0,0.6-0.1,0.7,0.1c0.1,0.3-0.2,0.5-0.3,0.7C86.5,15.5,80,23.1,73.4,30.8c-4,4.6-8,9.3-12,13.9c-0.4,0.5-0.3,0.8,0,1.2
		c6.9,10,13.8,20.1,20.7,30.1c4.8,7,9.6,14,14.4,21.1c-8.8,0-17.7,0-26.5,0c-0.2-0.4-0.4-0.8-0.7-1.1c-4.1-6-8.3-12.1-12.4-18.1
		c-3.4-4.9-6.8-9.9-10.2-14.8c-0.4-0.6-0.6-0.6-1.1-0.1c-1,1.3-2.1,2.5-3.2,3.7c-7,8.2-14.1,16.4-21.1,24.5C19.8,93.1,18,95,16.5,97
		C13.8,97,11.1,97,8.4,97z M79.7,91.3c1.7,0,3.5,0,5.2,0c0.2,0,0.4,0.1,0.6-0.1c0.1-0.2-0.1-0.4-0.2-0.5c-0.1-0.1-0.2-0.2-0.2-0.4
		C71.8,71.5,58.7,52.7,45.5,33.9c-4.7-6.7-9.4-13.4-14.1-20.1c-0.2-0.3-0.4-0.7-0.9-0.7c-3.5,0-7,0-10.5,0c-0.5,0-0.6,0.2-0.3,0.6
		c0.1,0.1,0.2,0.3,0.3,0.4C32.1,31.4,44.2,48.7,56.2,66c5.7,8.2,11.5,16.4,17.2,24.7c0.4,0.5,0.7,0.7,1.4,0.7
		C76.5,91.3,78.1,91.3,79.7,91.3z"/>
</g>
</svg>
